# xmcd
# 
# Track frame offsets:
#     150
#     16152
#     40256
#     58284
#     76239
#     93430
#     109899
#     125237
#     146883
#     165329
#     179947
#     200504
#     216481
#     233850
#     247683
#     263959
#     279973
#     297835
#     314414
# 
# Disc length: 4370
# 
# Revision: 4
# Processed by: cddbd v1.5.2PL0 Copyright (c) Steve Scherf et al.
# Submitted via: fre:ac v1.0.17
# 
DISCID=22111013
DTITLE=Various Artist - The Dome Vol. 25 CD1
DYEAR=2004
DGENRE=blues
TTITLE0=T.A.T.U. - All The Things She Said
TTITLE1=Eminem - Lose Yourself
TTITLE2=Christina Aguilera - Beautiful
TTITLE3=Deutschland sucht den Superstar - We Have A Dream
TTITLE4=Gareth Gates - Anyone Of Us
TTITLE5=Robbie Williams - Feel
TTITLE6=Natural - Runaway
TTITLE7=Nelly and Kelly Rowland - Dilemma
TTITLE8=Aaliyah - Miss You
TTITLE9=Shaggy - Hey Sexy Lady
TTITLE10=Ja Rule and Bobby Brown - Thug Lovin'
TTITLE11=Craig David - Hidden Agenda
TTITLE12=Massive Töne - Traumreise
TTITLE13=Bro'Sis - Never Stop
TTITLE14=Jeanette - It's Over Now
TTITLE15=Sweetbox - Here On My Own
TTITLE16=Paddy Kelly - Pray, Pray, Pray
TTITLE17=Catterfeld - Gefühle
TTITLE18=Die Gerd Show - Alles Wird Gut
EXTD=
EXTT0=
EXTT1=
EXTT2=
EXTT3=
EXTT4=
EXTT5=
EXTT6=
EXTT7=
EXTT8=
EXTT9=
EXTT10=
EXTT11=
EXTT12=
EXTT13=
EXTT14=
EXTT15=
EXTT16=
EXTT17=
EXTT18=
PLAYORDER=
